# xmcd
#
# Track frame offsets:
#	150
#	18810
#	32887
#	50820
#	67165
#	78812
#	96397
#	132803
#	186176
#	208275
#	226081
#	233575
#	254088
#	277790
#	299344
#	318879
#	332237
#
# Disc length: 4784 seconds
#
# Revision: 1
# Processed by: cddbd v1.5.2PL0 Copyright (c) Steve Scherf et al.
# Submitted via: audiograbber 1.83.01
#
DISCID=f612ae11
DTITLE=Alexis Korner - Both Sides  (Live and Studio)
DYEAR=2006
DGENRE=Blues
TTITLE0=Mighty-Mighty Spade And Whitey
TTITLE1=Funky
TTITLE2=Wild Injun Woman
TTITLE3=The Whom It Concern
TTITLE4=I See It
TTITLE5=You Don't Miss Your Water (Til Your Well Runs Dry)
TTITLE6=The Duo Thing (Live)
TTITLE7=Rosie (Live)
TTITLE8=New Worried Blues (Live)
TTITLE9=Will The Circle Be Unbroken (Live)
TTITLE10=Polly Put The Kettle On (Live)
TTITLE11=The Clapping Song (Live)
TTITLE12=Rosie (Bbc Session)
TTITLE13=Mary Open The Door (Bbc Session)
TTITLE14=Soul Twist (Bbc Session)
TTITLE15=Jesus Is Just Alright (Bbc Session)
TTITLE16=Rock Me (Live)
EXTD=
EXTT0=
EXTT1=
EXTT2=
EXTT3=
EXTT4=
EXTT5=
EXTT6=
EXTT7=
EXTT8=
EXTT9=
EXTT10=
EXTT11=
EXTT12=
EXTT13=
EXTT14=
EXTT15=
EXTT16=
PLAYORDER=
